<svg xmlns="http://www.w3.org/2000/svg" width="256" height="256" viewBox="0 0 67.733332 67.733335"><path d="M44.3729929 20.3760217l-4.0597 4.0597a11.258729 11.258729 0 014.81211 9.22424 11.258729 11.258729 0 01-5.33094 9.56324l4.07986 4.07986a16.938207 16.938207 0 006.93084-13.6431 16.938207 16.938207 0 00-6.43217-13.28394zm-21.266397.21342a16.938207 16.938207 0 00-6.177906 13.07052 16.938207 16.938207 0 006.782526 13.53561l4.07417-4.07417a11.258729 11.258729 0 01-5.17747-9.46144 11.258729 11.258729 0 014.54598-9.02322z" fill="#9c27b0"/><path d="M52.3192829 12.4297317l-4.00544 4.00545a22.48405 22.48405 0 018.03672 17.22478 22.48405 22.48405 0 01-8.50698 17.61236l4.03128 4.03128a28.163525 28.163525 0 0010.15545-21.64364 28.163525 28.163525 0 00-9.71103-21.23023zm-37.158443.21395a28.163525 28.163525 0 00-9.4578195 21.01628 28.163525 28.163525 0 0010.0314195 21.51187l4.02715-4.02663a22.48405 22.48405 0 01-8.3788195-17.48524 22.48405 22.48405 0 017.8021095-16.99224z" fill="#ce93d8"/><path d="M30.8988179 22.6800517l-1.673799 7.17992c.768445.68237 1.547301 1.34385 2.315104 2.01952.63632-.82475 1.618612-1.30846 2.660303-1.31 1.859068.00008 3.366122 1.50713 3.366201 3.36619.000201 1.85928-1.506932 3.36664-3.366201 3.36672-1.845828 0-3.34695-1.48738-3.365169-3.33312h-.000529v-.0185c-.00018-.005-.000265-.01-.000529-.0151.000169-.003.000264-.007.000529-.0103l-2.504755.0103c0 3.24215 2.628294 5.87045 5.870442 5.87045 3.242149 0 5.870443-2.6283 5.870443-5.87045 0-3.24214-2.628294-5.87043-5.870443-5.87043-.700026.00026-1.384172.12766-2.025716.36432l.856795-3.144h5.204849l1.369425-2.60552z" fill="#7b1fa2"/></svg>