<svg xmlns="http://www.w3.org/2000/svg" width="256" height="192" viewBox="0 0 67.73 50.8" version="1.1" id="svg8">
  <defs id="defs2">
    <filter style="color-interpolation-filters:sRGB" id="filter1214">
      <feComponentTransfer result="fbSourceGraphic" id="feComponentTransfer1212">
        <feFuncR type="gamma" amplitude=".86" exponent="2.09" offset=".05" id="feFuncR1206"/>
        <feFuncG type="gamma" amplitude=".86" exponent="2.09" offset=".05" id="feFuncG1208"/>
        <feFuncB type="gamma" amplitude=".86" exponent="2.09" offset=".05" id="feFuncB1210"/>
      </feComponentTransfer>
      <feColorMatrix result="fbSourceGraphicAlpha" in="fbSourceGraphic" values="0 0 0 -1 0 0 0 0 -1 0 0 0 0 -1 0 0 0 0 1 0" id="feColorMatrix1310"/>
      <feColorMatrix id="feColorMatrix1312" values="1 0 0 0 0 0 1 0 0 0 0 0 1 0 0 -1 0.5 0.5 1 0" in="fbSourceGraphic" result="colormatrix"/>
      <feComposite in2="fbSourceGraphic" id="feComposite1314" in="colormatrix" operator="in" result="composite1"/>
    </filter>
  </defs>
  <g id="layer1" transform="translate(0 -246.2)">
    <g transform="translate(-390.8 -21.92)" id="g1529">
      <g id="g1527" transform="translate(0 8.47)">
        <path id="path1507" d="M420.18 269.92l-2.36 10.16c1.08.96 2.19 1.9 3.27 2.86a4.76 4.76 0 11-1 2.95v-.02-.03-.01l-3.54.01a8.3 8.3 0 105.44-7.78l1.21-4.45h7.36l1.94-3.69z" style="opacity:1;fill:#7b1fa2;fill-opacity:1;stroke:none;stroke-width:.93546373;stroke-linecap:round;stroke-linejoin:bevel;stroke-miterlimit:4;stroke-dasharray:none;stroke-dashoffset:0;stroke-opacity:1;filter:url(#filter1214)"/>
        <path transform="matrix(.48882 0 0 .48882 376.63 254.42)" style="fill:#ce93d8;fill-opacity:1;filter:url(#filter1214)" class="st0" d="M35.2 63.1c.1-16.9 5.4-31.5 16.3-43.9 2.9-3.3 6-7.3 10.7-3.1 4.2 3.8 1.3 7.4-1.5 10.7-13.7 16-17.1 34.1-10.6 54 2.2 6.9 6.2 12.9 11 18.3 2.8 3.2 4.8 6.8.9 10.2-4 3.5-7.1.8-9.9-2.4-11.3-12.5-16.9-27.3-16.9-43.8z" id="path1509"/>
        <path transform="matrix(.48882 0 0 .48882 374.1 254.42)" style="fill:#ce93d8;fill-opacity:1;filter:url(#filter1214)" class="st0" d="M166.5 63.6c-.2 16.4-6 31.2-17.4 43.7-2.7 3-5.7 5.4-9.5 2.3-4-3.3-2.4-7 .6-10.2 17.1-18 18.5-45.6 6.6-64.5-2-3.1-4.3-6-6.6-8.9-2.8-3.3-4.5-6.9-.6-10.2 3.8-3.2 6.8-.7 9.5 2.2 11.6 12.9 17.4 27.8 17.4 45.6z" id="path1511"/>
        <path transform="matrix(.48882 0 0 .48882 376.43 254.42)" style="fill:#9c27b0;fill-opacity:1;filter:url(#filter1214)" class="st0" d="M57.5 63.1c.3-11.5 4-21.3 11.4-29.6 2.7-3 5.7-4.5 9.1-1.6 3.4 2.9 2.5 6.3-.1 9.2-6.5 7.4-9.3 15.8-8.2 25.6.7 6.1 3.1 11.4 7 16.1 2.8 3.3 5.6 7 1.2 10.6-4.7 3.9-7.7 0-10.6-3.5-6.5-7.8-9.5-17-9.8-26.8z" id="path1513"/>
        <path transform="matrix(.48882 0 0 .48882 374.37 254.42)" style="fill:#9c27b0;fill-opacity:1;filter:url(#filter1214)" class="st0" d="M144.1 63.6c-.3 10.2-3.9 19.9-11.4 28.3-2.7 3-5.7 4.5-9.1 1.7-3.4-2.8-2.3-6.1 0-9.3 11.7-15.9 11.7-27.2 0-43.1-2.3-3.2-3.5-6.4-.1-9.3 3.4-2.9 6.4-1.4 9.1 1.5 7.1 7.8 11.5 18.7 11.5 30.2z" id="path1515"/>
        <path style="opacity:1;fill:#7b1fa2;fill-opacity:1;stroke:none;stroke-width:.93546373;stroke-linecap:round;stroke-linejoin:bevel;stroke-miterlimit:4;stroke-dasharray:none;stroke-dashoffset:0;stroke-opacity:1" d="M419.95 269.15l-2.37 10.16c1.09.97 2.19 1.9 3.27 2.86a4.76 4.76 0 11-1 2.95v-.02-.02-.02l-3.54.02a8.3 8.3 0 105.44-7.8l1.21-4.44h7.37l1.93-3.69z" id="path1517"/>
        <path id="path1519" d="M392.57 285.23c.05-8.26 2.64-15.4 7.97-21.45 1.42-1.62 2.93-3.57 5.23-1.52 2.06 1.86.64 3.62-.73 5.23-6.7 7.82-8.36 16.67-5.18 26.4a25.03 25.03 0 005.37 8.94c1.37 1.57 2.35 3.33.44 4.99-1.95 1.7-3.47.39-4.83-1.18a31.07 31.07 0 01-8.27-21.4z" class="st0" style="fill:#ce93d8;fill-opacity:1;stroke-width:.48881707"/>
        <path id="path1521" d="M456.76 285.48a31.51 31.51 0 01-8.5 21.36c-1.33 1.47-2.8 2.64-4.65 1.12-1.96-1.6-1.18-3.42.29-4.98 8.36-8.8 9.04-22.3 3.23-31.53a55.58 55.58 0 00-3.23-4.35c-1.37-1.61-2.2-3.37-.3-4.99 1.86-1.56 3.33-.34 4.65 1.08a32 32 0 018.5 22.29z" class="st0" style="fill:#ce93d8;fill-opacity:1;stroke-width:.48881707"/>
        <path id="path1523" d="M403.47 285.23c.15-5.62 1.96-10.4 5.58-14.46 1.32-1.47 2.78-2.2 4.45-.79 1.66 1.42 1.22 3.08-.05 4.5a15.5 15.5 0 00-4.01 12.51 14.7 14.7 0 003.42 7.87c1.37 1.62 2.74 3.43.59 5.19-2.3 1.9-3.77 0-5.18-1.71a20.98 20.98 0 01-4.8-13.1z" class="st0" style="fill:#9c27b0;fill-opacity:1;stroke-width:.48881707"/>
        <path id="path1525" d="M445.8 285.48a21.3 21.3 0 01-5.57 13.83c-1.32 1.47-2.78 2.2-4.44.83-1.67-1.37-1.13-2.98 0-4.54 5.71-7.77 5.71-13.3 0-21.07-1.13-1.56-1.72-3.13-.05-4.55 1.66-1.41 3.13-.68 4.44.74a22.12 22.12 0 015.63 14.76z" class="st0" style="fill:#9c27b0;fill-opacity:1;stroke-width:.48881707"/>
      </g>
    </g>
  </g>
  <style id="style846" type="text/css">
    .st0{fill:#010101}
  </style>
</svg>
